<mxfile host="app.diagrams.net" modified="2024-07-19T00:54:43.139Z" agent="Mozilla/5.0 (Windows NT 10.0; Win64; x64) AppleWebKit/537.36 (KHTML, like Gecko) Chrome/126.0.0.0 Safari/537.36 Edg/126.0.0.0" etag="bNFKuShsjj-AGvAoJBQb" version="24.7.1" type="google">
  <diagram name="Page-1" id="Pk_4a0eg09pZhP5AUs6S">
    <mxGraphModel grid="1" page="1" gridSize="10" guides="1" tooltips="1" connect="1" arrows="1" fold="1" pageScale="1" pageWidth="850" pageHeight="1100" math="0" shadow="0">
      <root>
        <mxCell id="0" />
        <mxCell id="1" parent="0" />
        <mxCell id="prs6FUgYwXnfeBfyGkUR-8" value="1" style="endArrow=open;html=1;endSize=12;startArrow=diamondThin;startSize=14;startFill=0;edgeStyle=orthogonalEdgeStyle;align=left;verticalAlign=bottom;rounded=0;entryX=0.5;entryY=0;entryDx=0;entryDy=0;exitX=0;exitY=0.5;exitDx=0;exitDy=0;" edge="1" parent="1" source="prs6FUgYwXnfeBfyGkUR-48" target="prs6FUgYwXnfeBfyGkUR-22">
          <mxGeometry x="-1" y="3" relative="1" as="geometry">
            <mxPoint x="341" y="180" as="sourcePoint" />
            <mxPoint x="215" y="280" as="targetPoint" />
            <Array as="points">
              <mxPoint x="330" y="187" />
              <mxPoint x="330" y="180" />
              <mxPoint x="215" y="180" />
            </Array>
          </mxGeometry>
        </mxCell>
        <mxCell id="prs6FUgYwXnfeBfyGkUR-9" value="1" style="endArrow=open;html=1;endSize=12;startArrow=diamondThin;startSize=14;startFill=0;edgeStyle=orthogonalEdgeStyle;align=left;verticalAlign=bottom;rounded=0;exitX=1.044;exitY=0.265;exitDx=0;exitDy=0;exitPerimeter=0;entryX=0.55;entryY=0.029;entryDx=0;entryDy=0;entryPerimeter=0;" edge="1" parent="1" source="prs6FUgYwXnfeBfyGkUR-48" target="prs6FUgYwXnfeBfyGkUR-32">
          <mxGeometry x="-1" y="3" relative="1" as="geometry">
            <mxPoint x="483.95000000000005" y="180" as="sourcePoint" />
            <mxPoint x="665" y="270" as="targetPoint" />
          </mxGeometry>
        </mxCell>
        <mxCell id="prs6FUgYwXnfeBfyGkUR-10" value="1" style="endArrow=open;html=1;endSize=12;startArrow=diamondThin;startSize=14;startFill=0;edgeStyle=orthogonalEdgeStyle;align=left;verticalAlign=bottom;rounded=0;exitX=0.5;exitY=1;exitDx=0;exitDy=0;entryX=0.409;entryY=-0.02;entryDx=0;entryDy=0;entryPerimeter=0;" edge="1" parent="1" source="prs6FUgYwXnfeBfyGkUR-22">
          <mxGeometry x="-1" y="3" relative="1" as="geometry">
            <mxPoint x="194.99" y="329" as="sourcePoint" />
            <mxPoint x="204.99" y="399" as="targetPoint" />
          </mxGeometry>
        </mxCell>
        <mxCell id="prs6FUgYwXnfeBfyGkUR-11" value="1" style="endArrow=open;html=1;endSize=12;startArrow=diamondThin;startSize=14;startFill=0;edgeStyle=orthogonalEdgeStyle;align=left;verticalAlign=bottom;rounded=0;entryX=0.436;entryY=-0.02;entryDx=0;entryDy=0;entryPerimeter=0;" edge="1" parent="1">
          <mxGeometry x="-1" y="3" relative="1" as="geometry">
            <mxPoint x="424.04" y="310" as="sourcePoint" />
            <mxPoint x="424.00000000000006" y="417.5" as="targetPoint" />
          </mxGeometry>
        </mxCell>
        <mxCell id="prs6FUgYwXnfeBfyGkUR-12" value="1" style="endArrow=open;html=1;endSize=12;startArrow=diamondThin;startSize=14;startFill=0;edgeStyle=orthogonalEdgeStyle;align=left;verticalAlign=bottom;rounded=0;exitX=0.5;exitY=1;exitDx=0;exitDy=0;entryX=0.5;entryY=0;entryDx=0;entryDy=0;" edge="1" parent="1">
          <mxGeometry x="-0.6667" y="15" relative="1" as="geometry">
            <mxPoint x="435" y="210" as="sourcePoint" />
            <mxPoint x="435" y="270" as="targetPoint" />
            <mxPoint as="offset" />
          </mxGeometry>
        </mxCell>
        <mxCell id="prs6FUgYwXnfeBfyGkUR-13" value="1" style="endArrow=open;html=1;endSize=12;startArrow=diamondThin;startSize=14;startFill=0;edgeStyle=orthogonalEdgeStyle;align=left;verticalAlign=bottom;rounded=0;exitX=0.5;exitY=1;exitDx=0;exitDy=0;entryX=0.5;entryY=0;entryDx=0;entryDy=0;" edge="1" parent="1">
          <mxGeometry x="-0.4986" y="15" relative="1" as="geometry">
            <mxPoint x="665" y="320" as="sourcePoint" />
            <mxPoint x="665" y="400" as="targetPoint" />
            <mxPoint as="offset" />
          </mxGeometry>
        </mxCell>
        <mxCell id="prs6FUgYwXnfeBfyGkUR-14" value="0..*" style="text;html=1;align=center;verticalAlign=middle;resizable=0;points=[];autosize=1;strokeColor=none;fillColor=none;" vertex="1" parent="1">
          <mxGeometry x="210" y="238" width="40" height="30" as="geometry" />
        </mxCell>
        <mxCell id="prs6FUgYwXnfeBfyGkUR-15" value="1..*" style="text;html=1;align=center;verticalAlign=middle;resizable=0;points=[];autosize=1;strokeColor=none;fillColor=none;" vertex="1" parent="1">
          <mxGeometry x="210" y="368" width="40" height="30" as="geometry" />
        </mxCell>
        <mxCell id="prs6FUgYwXnfeBfyGkUR-16" value="0..*" style="text;html=1;align=center;verticalAlign=middle;resizable=0;points=[];autosize=1;strokeColor=none;fillColor=none;" vertex="1" parent="1">
          <mxGeometry x="440" y="238" width="40" height="30" as="geometry" />
        </mxCell>
        <mxCell id="prs6FUgYwXnfeBfyGkUR-17" value="1..*" style="text;html=1;align=center;verticalAlign=middle;resizable=0;points=[];autosize=1;strokeColor=none;fillColor=none;" vertex="1" parent="1">
          <mxGeometry x="440" y="368" width="40" height="30" as="geometry" />
        </mxCell>
        <mxCell id="prs6FUgYwXnfeBfyGkUR-18" value="0..*" style="text;html=1;align=center;verticalAlign=middle;resizable=0;points=[];autosize=1;strokeColor=none;fillColor=none;" vertex="1" parent="1">
          <mxGeometry x="670" y="238" width="40" height="30" as="geometry" />
        </mxCell>
        <mxCell id="prs6FUgYwXnfeBfyGkUR-19" value="1..*" style="text;html=1;align=center;verticalAlign=middle;resizable=0;points=[];autosize=1;strokeColor=none;fillColor=none;" vertex="1" parent="1">
          <mxGeometry x="680" y="368" width="40" height="30" as="geometry" />
        </mxCell>
        <mxCell id="prs6FUgYwXnfeBfyGkUR-22" value="Fruit" style="swimlane;fontStyle=1;align=center;verticalAlign=top;childLayout=stackLayout;horizontal=1;startSize=26;horizontalStack=0;resizeParent=1;resizeParentMax=0;resizeLast=0;collapsible=1;marginBottom=0;whiteSpace=wrap;html=1;" vertex="1" parent="1">
          <mxGeometry x="135" y="290" width="160" height="34" as="geometry" />
        </mxCell>
        <mxCell id="prs6FUgYwXnfeBfyGkUR-24" value="" style="line;strokeWidth=1;fillColor=none;align=left;verticalAlign=middle;spacingTop=-1;spacingLeft=3;spacingRight=3;rotatable=0;labelPosition=right;points=[];portConstraint=eastwest;strokeColor=inherit;" vertex="1" parent="prs6FUgYwXnfeBfyGkUR-22">
          <mxGeometry y="26" width="160" height="8" as="geometry" />
        </mxCell>
        <mxCell id="prs6FUgYwXnfeBfyGkUR-28" value="Flower" style="swimlane;fontStyle=1;align=center;verticalAlign=top;childLayout=stackLayout;horizontal=1;startSize=26;horizontalStack=0;resizeParent=1;resizeParentMax=0;resizeLast=0;collapsible=1;marginBottom=0;whiteSpace=wrap;html=1;" vertex="1" parent="1">
          <mxGeometry x="350" y="270" width="160" height="40" as="geometry" />
        </mxCell>
        <mxCell id="prs6FUgYwXnfeBfyGkUR-30" value="" style="line;strokeWidth=1;fillColor=none;align=left;verticalAlign=middle;spacingTop=-1;spacingLeft=3;spacingRight=3;rotatable=0;labelPosition=right;points=[];portConstraint=eastwest;strokeColor=inherit;" vertex="1" parent="prs6FUgYwXnfeBfyGkUR-28">
          <mxGeometry y="26" width="160" height="14" as="geometry" />
        </mxCell>
        <mxCell id="prs6FUgYwXnfeBfyGkUR-32" value="Leaf" style="swimlane;fontStyle=1;align=center;verticalAlign=top;childLayout=stackLayout;horizontal=1;startSize=26;horizontalStack=0;resizeParent=1;resizeParentMax=0;resizeLast=0;collapsible=1;marginBottom=0;whiteSpace=wrap;html=1;" vertex="1" parent="1">
          <mxGeometry x="580" y="290" width="160" height="34" as="geometry" />
        </mxCell>
        <mxCell id="prs6FUgYwXnfeBfyGkUR-34" value="" style="line;strokeWidth=1;fillColor=none;align=left;verticalAlign=middle;spacingTop=-1;spacingLeft=3;spacingRight=3;rotatable=0;labelPosition=right;points=[];portConstraint=eastwest;strokeColor=inherit;" vertex="1" parent="prs6FUgYwXnfeBfyGkUR-32">
          <mxGeometry y="26" width="160" height="8" as="geometry" />
        </mxCell>
        <mxCell id="prs6FUgYwXnfeBfyGkUR-36" value="Vein" style="swimlane;fontStyle=1;align=center;verticalAlign=top;childLayout=stackLayout;horizontal=1;startSize=26;horizontalStack=0;resizeParent=1;resizeParentMax=0;resizeLast=0;collapsible=1;marginBottom=0;whiteSpace=wrap;html=1;" vertex="1" parent="1">
          <mxGeometry x="590" y="400" width="160" height="34" as="geometry" />
        </mxCell>
        <mxCell id="prs6FUgYwXnfeBfyGkUR-38" value="" style="line;strokeWidth=1;fillColor=none;align=left;verticalAlign=middle;spacingTop=-1;spacingLeft=3;spacingRight=3;rotatable=0;labelPosition=right;points=[];portConstraint=eastwest;strokeColor=inherit;" vertex="1" parent="prs6FUgYwXnfeBfyGkUR-36">
          <mxGeometry y="26" width="160" height="8" as="geometry" />
        </mxCell>
        <mxCell id="prs6FUgYwXnfeBfyGkUR-40" value="Petal" style="swimlane;fontStyle=1;align=center;verticalAlign=top;childLayout=stackLayout;horizontal=1;startSize=26;horizontalStack=0;resizeParent=1;resizeParentMax=0;resizeLast=0;collapsible=1;marginBottom=0;whiteSpace=wrap;html=1;" vertex="1" parent="1">
          <mxGeometry x="350" y="420" width="160" height="34" as="geometry" />
        </mxCell>
        <mxCell id="prs6FUgYwXnfeBfyGkUR-42" value="" style="line;strokeWidth=1;fillColor=none;align=left;verticalAlign=middle;spacingTop=-1;spacingLeft=3;spacingRight=3;rotatable=0;labelPosition=right;points=[];portConstraint=eastwest;strokeColor=inherit;" vertex="1" parent="prs6FUgYwXnfeBfyGkUR-40">
          <mxGeometry y="26" width="160" height="8" as="geometry" />
        </mxCell>
        <mxCell id="prs6FUgYwXnfeBfyGkUR-44" value="Seed" style="swimlane;fontStyle=1;align=center;verticalAlign=top;childLayout=stackLayout;horizontal=1;startSize=26;horizontalStack=0;resizeParent=1;resizeParentMax=0;resizeLast=0;collapsible=1;marginBottom=0;whiteSpace=wrap;html=1;" vertex="1" parent="1">
          <mxGeometry x="135" y="400" width="160" height="34" as="geometry" />
        </mxCell>
        <mxCell id="prs6FUgYwXnfeBfyGkUR-46" value="" style="line;strokeWidth=1;fillColor=none;align=left;verticalAlign=middle;spacingTop=-1;spacingLeft=3;spacingRight=3;rotatable=0;labelPosition=right;points=[];portConstraint=eastwest;strokeColor=inherit;" vertex="1" parent="prs6FUgYwXnfeBfyGkUR-44">
          <mxGeometry y="26" width="160" height="8" as="geometry" />
        </mxCell>
        <mxCell id="prs6FUgYwXnfeBfyGkUR-48" value="Plant" style="swimlane;fontStyle=1;align=center;verticalAlign=top;childLayout=stackLayout;horizontal=1;startSize=26;horizontalStack=0;resizeParent=1;resizeParentMax=0;resizeLast=0;collapsible=1;marginBottom=0;whiteSpace=wrap;html=1;" vertex="1" parent="1">
          <mxGeometry x="350" y="170" width="160" height="34" as="geometry" />
        </mxCell>
        <mxCell id="prs6FUgYwXnfeBfyGkUR-50" value="" style="line;strokeWidth=1;fillColor=none;align=left;verticalAlign=middle;spacingTop=-1;spacingLeft=3;spacingRight=3;rotatable=0;labelPosition=right;points=[];portConstraint=eastwest;strokeColor=inherit;" vertex="1" parent="prs6FUgYwXnfeBfyGkUR-48">
          <mxGeometry y="26" width="160" height="8" as="geometry" />
        </mxCell>
      </root>
    </mxGraphModel>
  </diagram>
</mxfile>
